<?xml version="1.0" encoding="UTF-8" standalone="no"?>
<!DOCTYPE svg PUBLIC "-//W3C//DTD SVG 1.1//EN"
 "http://www.w3.org/Graphics/SVG/1.1/DTD/svg11.dtd">
<!-- Generated by graphviz version 2.47.0 (20210316.0004)
 -->
<!-- Title: dbml Pages: 1 -->
<svg width="1801pt" height="1139pt"
 viewBox="0.00 0.00 1801.10 1139.35" xmlns="http://www.w3.org/2000/svg" xmlns:xlink="http://www.w3.org/1999/xlink">
<g id="graph0" class="graph" transform="scale(1 1) rotate(0) translate(4 1135.35)">
<title>dbml</title>
<!-- Access -->
<g id="Access" class="node">
<title>Access</title>
<ellipse fill="none" stroke="black" stroke-width="0" cx="289.21" cy="-855.81" rx="289.41" ry="214.92"/>
<polygon fill="#1d71b8" stroke="transparent" points="87.21,-945.81 87.21,-1005.81 492.21,-1005.81 492.21,-945.81 87.21,-945.81"/>
<polygon fill="none" stroke="#29235c" points="87.21,-945.81 87.21,-1005.81 492.21,-1005.81 492.21,-945.81 87.21,-945.81"/>
<text text-anchor="start" x="175.89" y="-967.01" font-family="Helvetica,sans-Serif" font-weight="bold" font-size="32.00" fill="#ffffff"> &#160;&#160;&#160;&#160;&#160;&#160;Access &#160;&#160;&#160;&#160;&#160;&#160;</text>
<polygon fill="#e7e2dd" stroke="transparent" points="87.21,-885.81 87.21,-945.81 492.21,-945.81 492.21,-885.81 87.21,-885.81"/>
<polygon fill="none" stroke="#29235c" points="87.21,-885.81 87.21,-945.81 492.21,-945.81 492.21,-885.81 87.21,-885.81"/>
<text text-anchor="start" x="98.21" y="-907.01" font-family="Helvetica,sans-Serif" font-weight="bold" font-size="32.00" fill="#29235c">id</text>
<text text-anchor="start" x="123.1" y="-907.01" font-family="Helvetica,sans-Serif" font-size="32.00" fill="#29235c"> &#160;&#160;&#160;</text>
<text text-anchor="start" x="338.99" y="-907.01" font-family="Helvetica,sans-Serif" font-style="italic" font-size="32.00" fill="#29235c">INTEGER</text>
<polygon fill="#e7e2dd" stroke="transparent" points="87.21,-825.81 87.21,-885.81 492.21,-885.81 492.21,-825.81 87.21,-825.81"/>
<polygon fill="none" stroke="#29235c" points="87.21,-825.81 87.21,-885.81 492.21,-885.81 492.21,-825.81 87.21,-825.81"/>
<text text-anchor="start" x="98.21" y="-846.01" font-family="Helvetica,sans-Serif" font-size="32.00" fill="#29235c">user_id &#160;&#160;&#160;</text>
<text text-anchor="start" x="338.99" y="-847.01" font-family="Helvetica,sans-Serif" font-style="italic" font-size="32.00" fill="#29235c">INTEGER</text>
<polygon fill="#e7e2dd" stroke="transparent" points="87.21,-765.81 87.21,-825.81 492.21,-825.81 492.21,-765.81 87.21,-765.81"/>
<polygon fill="none" stroke="#29235c" points="87.21,-765.81 87.21,-825.81 492.21,-825.81 492.21,-765.81 87.21,-765.81"/>
<text text-anchor="start" x="98.21" y="-786.01" font-family="Helvetica,sans-Serif" font-size="32.00" fill="#29235c">door_id &#160;&#160;&#160;</text>
<text text-anchor="start" x="338.99" y="-787.01" font-family="Helvetica,sans-Serif" font-style="italic" font-size="32.00" fill="#29235c">INTEGER</text>
<polygon fill="#e7e2dd" stroke="transparent" points="87.21,-705.81 87.21,-765.81 492.21,-765.81 492.21,-705.81 87.21,-705.81"/>
<polygon fill="none" stroke="#29235c" points="87.21,-705.81 87.21,-765.81 492.21,-765.81 492.21,-705.81 87.21,-705.81"/>
<text text-anchor="start" x="98.01" y="-726.01" font-family="Helvetica,sans-Serif" font-size="32.00" fill="#29235c">is_permanent &#160;&#160;&#160;</text>
<text text-anchor="start" x="326.86" y="-727.01" font-family="Helvetica,sans-Serif" font-style="italic" font-size="32.00" fill="#29235c">BOOLEAN</text>
<polygon fill="none" stroke="#29235c" stroke-width="2" points="85.71,-704.81 85.71,-1006.81 492.71,-1006.81 492.71,-704.81 85.71,-704.81"/>
</g>
<!-- Door -->
<g id="Door" class="node">
<title>Door</title>
<ellipse fill="none" stroke="black" stroke-width="0" cx="930.49" cy="-287.81" rx="316.15" ry="130.22"/>
<polygon fill="#1d71b8" stroke="transparent" points="709.49,-317.81 709.49,-377.81 1152.49,-377.81 1152.49,-317.81 709.49,-317.81"/>
<polygon fill="none" stroke="#29235c" points="709.49,-317.81 709.49,-377.81 1152.49,-377.81 1152.49,-317.81 709.49,-317.81"/>
<text text-anchor="start" x="834.07" y="-339.01" font-family="Helvetica,sans-Serif" font-weight="bold" font-size="32.00" fill="#ffffff"> &#160;&#160;&#160;&#160;&#160;&#160;Door &#160;&#160;&#160;&#160;&#160;&#160;</text>
<polygon fill="#e7e2dd" stroke="transparent" points="709.49,-257.81 709.49,-317.81 1152.49,-317.81 1152.49,-257.81 709.49,-257.81"/>
<polygon fill="none" stroke="#29235c" points="709.49,-257.81 709.49,-317.81 1152.49,-317.81 1152.49,-257.81 709.49,-257.81"/>
<text text-anchor="start" x="720.49" y="-279.01" font-family="Helvetica,sans-Serif" font-weight="bold" font-size="32.00" fill="#29235c">id</text>
<text text-anchor="start" x="745.38" y="-279.01" font-family="Helvetica,sans-Serif" font-size="32.00" fill="#29235c"> &#160;&#160;&#160;</text>
<text text-anchor="start" x="999.27" y="-279.01" font-family="Helvetica,sans-Serif" font-style="italic" font-size="32.00" fill="#29235c">INTEGER</text>
<polygon fill="#e7e2dd" stroke="transparent" points="709.49,-197.81 709.49,-257.81 1152.49,-257.81 1152.49,-197.81 709.49,-197.81"/>
<polygon fill="none" stroke="#29235c" points="709.49,-197.81 709.49,-257.81 1152.49,-257.81 1152.49,-197.81 709.49,-197.81"/>
<text text-anchor="start" x="720.36" y="-218.01" font-family="Helvetica,sans-Serif" font-size="32.00" fill="#29235c">description &#160;&#160;&#160;</text>
<text text-anchor="start" x="910.44" y="-219.01" font-family="Helvetica,sans-Serif" font-style="italic" font-size="32.00" fill="#29235c">VARCHAR(100)</text>
<polygon fill="none" stroke="#29235c" stroke-width="2" points="707.99,-196.81 707.99,-378.81 1152.99,-378.81 1152.99,-196.81 707.99,-196.81"/>
</g>
<!-- Access&#45;&gt;Door -->
<!-- Access&#45;&gt;Door -->
<g id="edge2" class="edge">
<title>Access:e&#45;&gt;Door:w</title>
<path fill="none" stroke="#29235c" stroke-width="3" d="M493.21,-795.81C734.95,-795.81 470.96,-302.1 698.38,-288.12"/>
<polygon fill="#29235c" stroke="#29235c" stroke-width="3" points="698.6,-291.61 708.49,-287.81 698.39,-284.61 698.6,-291.61"/>
<text text-anchor="middle" x="714.71" y="-259.01" font-family="Helvetica,sans-Serif" font-size="32.00" fill="#29235c">*</text>
<text text-anchor="middle" x="502.1" y="-805.41" font-family="Helvetica,sans-Serif" font-size="32.00" fill="#29235c">1</text>
</g>
<!-- User -->
<g id="User" class="node">
<title>User</title>
<ellipse fill="none" stroke="black" stroke-width="0" cx="930.49" cy="-777.81" rx="308.1" ry="342.48"/>
<polygon fill="#1d71b8" stroke="transparent" points="714.49,-957.81 714.49,-1017.81 1146.49,-1017.81 1146.49,-957.81 714.49,-957.81"/>
<polygon fill="none" stroke="#29235c" points="714.49,-957.81 714.49,-1017.81 1146.49,-1017.81 1146.49,-957.81 714.49,-957.81"/>
<text text-anchor="start" x="834.47" y="-979.01" font-family="Helvetica,sans-Serif" font-weight="bold" font-size="32.00" fill="#ffffff"> &#160;&#160;&#160;&#160;&#160;&#160;User &#160;&#160;&#160;&#160;&#160;&#160;</text>
<polygon fill="#e7e2dd" stroke="transparent" points="714.49,-897.81 714.49,-957.81 1146.49,-957.81 1146.49,-897.81 714.49,-897.81"/>
<polygon fill="none" stroke="#29235c" points="714.49,-897.81 714.49,-957.81 1146.49,-957.81 1146.49,-897.81 714.49,-897.81"/>
<text text-anchor="start" x="725.49" y="-919.01" font-family="Helvetica,sans-Serif" font-weight="bold" font-size="32.00" fill="#29235c">id</text>
<text text-anchor="start" x="750.38" y="-919.01" font-family="Helvetica,sans-Serif" font-size="32.00" fill="#29235c"> &#160;&#160;&#160;</text>
<text text-anchor="start" x="993.27" y="-919.01" font-family="Helvetica,sans-Serif" font-style="italic" font-size="32.00" fill="#29235c">INTEGER</text>
<polygon fill="#e7e2dd" stroke="transparent" points="714.49,-837.81 714.49,-897.81 1146.49,-897.81 1146.49,-837.81 714.49,-837.81"/>
<polygon fill="none" stroke="#29235c" points="714.49,-837.81 714.49,-897.81 1146.49,-897.81 1146.49,-837.81 714.49,-837.81"/>
<text text-anchor="start" x="725.49" y="-858.01" font-family="Helvetica,sans-Serif" font-size="32.00" fill="#29235c">name &#160;&#160;&#160;</text>
<text text-anchor="start" x="922.18" y="-859.01" font-family="Helvetica,sans-Serif" font-style="italic" font-size="32.00" fill="#29235c">VARCHAR(50)</text>
<polygon fill="#e7e2dd" stroke="transparent" points="714.49,-777.81 714.49,-837.81 1146.49,-837.81 1146.49,-777.81 714.49,-777.81"/>
<polygon fill="none" stroke="#29235c" points="714.49,-777.81 714.49,-837.81 1146.49,-837.81 1146.49,-777.81 714.49,-777.81"/>
<text text-anchor="start" x="725.47" y="-798.01" font-family="Helvetica,sans-Serif" font-size="32.00" fill="#29235c">is_special_user &#160;&#160;&#160;</text>
<text text-anchor="start" x="981.14" y="-799.01" font-family="Helvetica,sans-Serif" font-style="italic" font-size="32.00" fill="#29235c">BOOLEAN</text>
<polygon fill="#e7e2dd" stroke="transparent" points="714.49,-717.81 714.49,-777.81 1146.49,-777.81 1146.49,-717.81 714.49,-717.81"/>
<polygon fill="none" stroke="#29235c" points="714.49,-717.81 714.49,-777.81 1146.49,-777.81 1146.49,-717.81 714.49,-717.81"/>
<text text-anchor="start" x="725.49" y="-738.01" font-family="Helvetica,sans-Serif" font-size="32.00" fill="#29235c">group_id &#160;&#160;&#160;</text>
<text text-anchor="start" x="993.27" y="-739.01" font-family="Helvetica,sans-Serif" font-style="italic" font-size="32.00" fill="#29235c">INTEGER</text>
<polygon fill="#e7e2dd" stroke="transparent" points="714.49,-657.81 714.49,-717.81 1146.49,-717.81 1146.49,-657.81 714.49,-657.81"/>
<polygon fill="none" stroke="#29235c" points="714.49,-657.81 714.49,-717.81 1146.49,-717.81 1146.49,-657.81 714.49,-657.81"/>
<text text-anchor="start" x="725.49" y="-678.01" font-family="Helvetica,sans-Serif" font-size="32.00" fill="#29235c">profile_id &#160;&#160;&#160;</text>
<text text-anchor="start" x="993.27" y="-679.01" font-family="Helvetica,sans-Serif" font-style="italic" font-size="32.00" fill="#29235c">INTEGER</text>
<polygon fill="#e7e2dd" stroke="transparent" points="714.49,-597.81 714.49,-657.81 1146.49,-657.81 1146.49,-597.81 714.49,-597.81"/>
<polygon fill="none" stroke="#29235c" points="714.49,-597.81 714.49,-657.81 1146.49,-657.81 1146.49,-597.81 714.49,-597.81"/>
<text text-anchor="start" x="725.49" y="-618.01" font-family="Helvetica,sans-Serif" font-size="32.00" fill="#29235c">access_count &#160;&#160;&#160;</text>
<text text-anchor="start" x="993.27" y="-619.01" font-family="Helvetica,sans-Serif" font-style="italic" font-size="32.00" fill="#29235c">INTEGER</text>
<polygon fill="#e7e2dd" stroke="transparent" points="714.49,-537.81 714.49,-597.81 1146.49,-597.81 1146.49,-537.81 714.49,-537.81"/>
<polygon fill="none" stroke="#29235c" points="714.49,-537.81 714.49,-597.81 1146.49,-597.81 1146.49,-537.81 714.49,-537.81"/>
<text text-anchor="start" x="725.49" y="-558.01" font-family="Helvetica,sans-Serif" font-size="32.00" fill="#29235c">invitation_count &#160;&#160;&#160;</text>
<text text-anchor="start" x="993.27" y="-559.01" font-family="Helvetica,sans-Serif" font-style="italic" font-size="32.00" fill="#29235c">INTEGER</text>
<polygon fill="none" stroke="#29235c" stroke-width="2" points="713.49,-536.81 713.49,-1018.81 1147.49,-1018.81 1147.49,-536.81 713.49,-536.81"/>
</g>
<!-- Access&#45;&gt;User -->
<!-- Access&#45;&gt;User -->
<g id="edge4" class="edge">
<title>Access:e&#45;&gt;User:w</title>
<path fill="none" stroke="#29235c" stroke-width="3" d="M493.21,-855.81C592.69,-855.81 609.41,-922.98 703.23,-927.57"/>
<polygon fill="#29235c" stroke="#29235c" stroke-width="3" points="703.41,-931.07 713.49,-927.81 703.58,-924.07 703.41,-931.07"/>
<text text-anchor="middle" x="719.71" y="-937.41" font-family="Helvetica,sans-Serif" font-size="32.00" fill="#29235c">*</text>
<text text-anchor="middle" x="502.1" y="-865.41" font-family="Helvetica,sans-Serif" font-size="32.00" fill="#29235c">1</text>
</g>
<!-- Group -->
<g id="Group" class="node">
<title>Group</title>
<ellipse fill="none" stroke="black" stroke-width="0" cx="1537.83" cy="-958.81" rx="255.03" ry="172.57"/>
<polygon fill="#1d71b8" stroke="transparent" points="1359.83,-1018.81 1359.83,-1078.81 1716.83,-1078.81 1716.83,-1018.81 1359.83,-1018.81"/>
<polygon fill="none" stroke="#29235c" points="1359.83,-1018.81 1359.83,-1078.81 1716.83,-1078.81 1716.83,-1018.81 1359.83,-1018.81"/>
<text text-anchor="start" x="1431.63" y="-1040.01" font-family="Helvetica,sans-Serif" font-weight="bold" font-size="32.00" fill="#ffffff"> &#160;&#160;&#160;&#160;&#160;&#160;Group &#160;&#160;&#160;&#160;&#160;&#160;</text>
<polygon fill="#e7e2dd" stroke="transparent" points="1359.83,-958.81 1359.83,-1018.81 1716.83,-1018.81 1716.83,-958.81 1359.83,-958.81"/>
<polygon fill="none" stroke="#29235c" points="1359.83,-958.81 1359.83,-1018.81 1716.83,-1018.81 1716.83,-958.81 1359.83,-958.81"/>
<text text-anchor="start" x="1370.83" y="-980.01" font-family="Helvetica,sans-Serif" font-weight="bold" font-size="32.00" fill="#29235c">id</text>
<text text-anchor="start" x="1395.72" y="-980.01" font-family="Helvetica,sans-Serif" font-size="32.00" fill="#29235c"> &#160;&#160;&#160;</text>
<text text-anchor="start" x="1563.61" y="-980.01" font-family="Helvetica,sans-Serif" font-style="italic" font-size="32.00" fill="#29235c">INTEGER</text>
<polygon fill="#e7e2dd" stroke="transparent" points="1359.83,-898.81 1359.83,-958.81 1716.83,-958.81 1716.83,-898.81 1359.83,-898.81"/>
<polygon fill="none" stroke="#29235c" points="1359.83,-898.81 1359.83,-958.81 1716.83,-958.81 1716.83,-898.81 1359.83,-898.81"/>
<text text-anchor="start" x="1370.83" y="-919.01" font-family="Helvetica,sans-Serif" font-size="32.00" fill="#29235c">name &#160;&#160;&#160;</text>
<text text-anchor="start" x="1492.52" y="-920.01" font-family="Helvetica,sans-Serif" font-style="italic" font-size="32.00" fill="#29235c">VARCHAR(50)</text>
<polygon fill="#e7e2dd" stroke="transparent" points="1359.83,-838.81 1359.83,-898.81 1716.83,-898.81 1716.83,-838.81 1359.83,-838.81"/>
<polygon fill="none" stroke="#29235c" points="1359.83,-838.81 1359.83,-898.81 1716.83,-898.81 1716.83,-838.81 1359.83,-838.81"/>
<text text-anchor="start" x="1370.41" y="-859.01" font-family="Helvetica,sans-Serif" font-size="32.00" fill="#29235c">user_count &#160;&#160;&#160;</text>
<text text-anchor="start" x="1563.72" y="-860.01" font-family="Helvetica,sans-Serif" font-style="italic" font-size="32.00" fill="#29235c">INTEGER</text>
<polygon fill="none" stroke="#29235c" stroke-width="2" points="1358.33,-837.81 1358.33,-1079.81 1717.33,-1079.81 1717.33,-837.81 1358.33,-837.81"/>
</g>
<!-- User&#45;&gt;Group -->
<!-- User&#45;&gt;Group -->
<g id="edge6" class="edge">
<title>User:e&#45;&gt;Group:w</title>
<path fill="none" stroke="#29235c" stroke-width="3" d="M1147.49,-747.81C1286.47,-747.81 1219.83,-977.19 1348.78,-988.39"/>
<polygon fill="#29235c" stroke="#29235c" stroke-width="3" points="1348.69,-991.89 1358.83,-988.81 1348.99,-984.9 1348.69,-991.89"/>
<text text-anchor="middle" x="1352.61" y="-998.41" font-family="Helvetica,sans-Serif" font-size="32.00" fill="#29235c">*</text>
<text text-anchor="middle" x="1138.6" y="-757.41" font-family="Helvetica,sans-Serif" font-size="32.00" fill="#29235c">1</text>
</g>
<!-- Profile -->
<g id="Profile" class="node">
<title>Profile</title>
<ellipse fill="none" stroke="black" stroke-width="0" cx="1537.83" cy="-595.81" rx="255.03" ry="172.57"/>
<polygon fill="#1d71b8" stroke="transparent" points="1359.83,-655.81 1359.83,-715.81 1716.83,-715.81 1716.83,-655.81 1359.83,-655.81"/>
<polygon fill="none" stroke="#29235c" points="1359.83,-655.81 1359.83,-715.81 1716.83,-715.81 1716.83,-655.81 1359.83,-655.81"/>
<text text-anchor="start" x="1430.75" y="-677.01" font-family="Helvetica,sans-Serif" font-weight="bold" font-size="32.00" fill="#ffffff"> &#160;&#160;&#160;&#160;&#160;&#160;Profile &#160;&#160;&#160;&#160;&#160;&#160;</text>
<polygon fill="#e7e2dd" stroke="transparent" points="1359.83,-595.81 1359.83,-655.81 1716.83,-655.81 1716.83,-595.81 1359.83,-595.81"/>
<polygon fill="none" stroke="#29235c" points="1359.83,-595.81 1359.83,-655.81 1716.83,-655.81 1716.83,-595.81 1359.83,-595.81"/>
<text text-anchor="start" x="1370.83" y="-617.01" font-family="Helvetica,sans-Serif" font-weight="bold" font-size="32.00" fill="#29235c">id</text>
<text text-anchor="start" x="1395.72" y="-617.01" font-family="Helvetica,sans-Serif" font-size="32.00" fill="#29235c"> &#160;&#160;&#160;</text>
<text text-anchor="start" x="1563.61" y="-617.01" font-family="Helvetica,sans-Serif" font-style="italic" font-size="32.00" fill="#29235c">INTEGER</text>
<polygon fill="#e7e2dd" stroke="transparent" points="1359.83,-535.81 1359.83,-595.81 1716.83,-595.81 1716.83,-535.81 1359.83,-535.81"/>
<polygon fill="none" stroke="#29235c" points="1359.83,-535.81 1359.83,-595.81 1716.83,-595.81 1716.83,-535.81 1359.83,-535.81"/>
<text text-anchor="start" x="1370.83" y="-556.01" font-family="Helvetica,sans-Serif" font-size="32.00" fill="#29235c">name &#160;&#160;&#160;</text>
<text text-anchor="start" x="1492.52" y="-557.01" font-family="Helvetica,sans-Serif" font-style="italic" font-size="32.00" fill="#29235c">VARCHAR(50)</text>
<polygon fill="#e7e2dd" stroke="transparent" points="1359.83,-475.81 1359.83,-535.81 1716.83,-535.81 1716.83,-475.81 1359.83,-475.81"/>
<polygon fill="none" stroke="#29235c" points="1359.83,-475.81 1359.83,-535.81 1716.83,-535.81 1716.83,-475.81 1359.83,-475.81"/>
<text text-anchor="start" x="1370.41" y="-496.01" font-family="Helvetica,sans-Serif" font-size="32.00" fill="#29235c">user_count &#160;&#160;&#160;</text>
<text text-anchor="start" x="1563.72" y="-497.01" font-family="Helvetica,sans-Serif" font-style="italic" font-size="32.00" fill="#29235c">INTEGER</text>
<polygon fill="none" stroke="#29235c" stroke-width="2" points="1358.33,-474.81 1358.33,-716.81 1717.33,-716.81 1717.33,-474.81 1358.33,-474.81"/>
</g>
<!-- User&#45;&gt;Profile -->
<!-- User&#45;&gt;Profile -->
<g id="edge8" class="edge">
<title>User:e&#45;&gt;Profile:w</title>
<path fill="none" stroke="#29235c" stroke-width="3" d="M1147.49,-687.81C1241.94,-687.81 1259.75,-630.1 1348.81,-626.04"/>
<polygon fill="#29235c" stroke="#29235c" stroke-width="3" points="1348.91,-629.54 1358.83,-625.81 1348.76,-622.54 1348.91,-629.54"/>
<text text-anchor="middle" x="1352.61" y="-635.41" font-family="Helvetica,sans-Serif" font-size="32.00" fill="#29235c">*</text>
<text text-anchor="middle" x="1138.6" y="-697.41" font-family="Helvetica,sans-Serif" font-size="32.00" fill="#29235c">1</text>
</g>
<!-- Invitation -->
<g id="Invitation" class="node">
<title>Invitation</title>
<ellipse fill="none" stroke="black" stroke-width="0" cx="289.21" cy="-299.81" rx="270.23" ry="299.63"/>
<polygon fill="#1d71b8" stroke="transparent" points="100.21,-449.81 100.21,-509.81 478.21,-509.81 478.21,-449.81 100.21,-449.81"/>
<polygon fill="none" stroke="#29235c" points="100.21,-449.81 100.21,-509.81 478.21,-509.81 478.21,-449.81 100.21,-449.81"/>
<text text-anchor="start" x="162.94" y="-471.01" font-family="Helvetica,sans-Serif" font-weight="bold" font-size="32.00" fill="#ffffff"> &#160;&#160;&#160;&#160;&#160;&#160;Invitation &#160;&#160;&#160;&#160;&#160;&#160;</text>
<polygon fill="#e7e2dd" stroke="transparent" points="100.21,-389.81 100.21,-449.81 478.21,-449.81 478.21,-389.81 100.21,-389.81"/>
<polygon fill="none" stroke="#29235c" points="100.21,-389.81 100.21,-449.81 478.21,-449.81 478.21,-389.81 100.21,-389.81"/>
<text text-anchor="start" x="111.21" y="-411.01" font-family="Helvetica,sans-Serif" font-weight="bold" font-size="32.00" fill="#29235c">id</text>
<text text-anchor="start" x="136.1" y="-411.01" font-family="Helvetica,sans-Serif" font-size="32.00" fill="#29235c"> &#160;&#160;&#160;</text>
<text text-anchor="start" x="324.99" y="-411.01" font-family="Helvetica,sans-Serif" font-style="italic" font-size="32.00" fill="#29235c">INTEGER</text>
<polygon fill="#e7e2dd" stroke="transparent" points="100.21,-329.81 100.21,-389.81 478.21,-389.81 478.21,-329.81 100.21,-329.81"/>
<polygon fill="none" stroke="#29235c" points="100.21,-329.81 100.21,-389.81 478.21,-389.81 478.21,-329.81 100.21,-329.81"/>
<text text-anchor="start" x="111.21" y="-350.01" font-family="Helvetica,sans-Serif" font-size="32.00" fill="#29235c">user_id &#160;&#160;&#160;</text>
<text text-anchor="start" x="324.99" y="-351.01" font-family="Helvetica,sans-Serif" font-style="italic" font-size="32.00" fill="#29235c">INTEGER</text>
<polygon fill="#e7e2dd" stroke="transparent" points="100.21,-269.81 100.21,-329.81 478.21,-329.81 478.21,-269.81 100.21,-269.81"/>
<polygon fill="none" stroke="#29235c" points="100.21,-269.81 100.21,-329.81 478.21,-329.81 478.21,-269.81 100.21,-269.81"/>
<text text-anchor="start" x="111.21" y="-290.01" font-family="Helvetica,sans-Serif" font-size="32.00" fill="#29235c">door_id &#160;&#160;&#160;</text>
<text text-anchor="start" x="324.99" y="-291.01" font-family="Helvetica,sans-Serif" font-style="italic" font-size="32.00" fill="#29235c">INTEGER</text>
<polygon fill="#e7e2dd" stroke="transparent" points="100.21,-209.81 100.21,-269.81 478.21,-269.81 478.21,-209.81 100.21,-209.81"/>
<polygon fill="none" stroke="#29235c" points="100.21,-209.81 100.21,-269.81 478.21,-269.81 478.21,-209.81 100.21,-209.81"/>
<text text-anchor="start" x="111.21" y="-230.01" font-family="Helvetica,sans-Serif" font-size="32.00" fill="#29235c">start_date &#160;&#160;&#160;</text>
<text text-anchor="start" x="381.88" y="-231.01" font-family="Helvetica,sans-Serif" font-style="italic" font-size="32.00" fill="#29235c">DATE</text>
<polygon fill="#e7e2dd" stroke="transparent" points="100.21,-149.81 100.21,-209.81 478.21,-209.81 478.21,-149.81 100.21,-149.81"/>
<polygon fill="none" stroke="#29235c" points="100.21,-149.81 100.21,-209.81 478.21,-209.81 478.21,-149.81 100.21,-149.81"/>
<text text-anchor="start" x="111.21" y="-170.01" font-family="Helvetica,sans-Serif" font-size="32.00" fill="#29235c">end_date &#160;&#160;&#160;</text>
<text text-anchor="start" x="381.88" y="-171.01" font-family="Helvetica,sans-Serif" font-style="italic" font-size="32.00" fill="#29235c">DATE</text>
<polygon fill="#e7e2dd" stroke="transparent" points="100.21,-89.81 100.21,-149.81 478.21,-149.81 478.21,-89.81 100.21,-89.81"/>
<polygon fill="none" stroke="#29235c" points="100.21,-89.81 100.21,-149.81 478.21,-149.81 478.21,-89.81 100.21,-89.81"/>
<text text-anchor="start" x="110.87" y="-110.01" font-family="Helvetica,sans-Serif" font-size="32.00" fill="#29235c">is_recurring &#160;&#160;&#160;</text>
<text text-anchor="start" x="312.86" y="-111.01" font-family="Helvetica,sans-Serif" font-style="italic" font-size="32.00" fill="#29235c">BOOLEAN</text>
<polygon fill="none" stroke="#29235c" stroke-width="2" points="99.21,-88.81 99.21,-510.81 479.21,-510.81 479.21,-88.81 99.21,-88.81"/>
</g>
<!-- Invitation&#45;&gt;Door -->
<!-- Invitation&#45;&gt;Door -->
<g id="edge10" class="edge">
<title>Invitation:e&#45;&gt;Door:w</title>
<path fill="none" stroke="#29235c" stroke-width="3" d="M479.21,-299.81C577.76,-299.81 604.63,-288.62 698.29,-287.85"/>
<polygon fill="#29235c" stroke="#29235c" stroke-width="3" points="698.5,-291.35 708.49,-287.81 698.48,-284.35 698.5,-291.35"/>
<text text-anchor="middle" x="714.71" y="-297.41" font-family="Helvetica,sans-Serif" font-size="32.00" fill="#29235c">*</text>
<text text-anchor="middle" x="488.1" y="-271.01" font-family="Helvetica,sans-Serif" font-size="32.00" fill="#29235c">1</text>
</g>
<!-- Invitation&#45;&gt;User -->
<!-- Invitation&#45;&gt;User -->
<g id="edge12" class="edge">
<title>Invitation:e&#45;&gt;User:w</title>
<path fill="none" stroke="#29235c" stroke-width="3" d="M479.21,-359.81C748.82,-359.81 448.24,-913.48 703.37,-927.54"/>
<polygon fill="#29235c" stroke="#29235c" stroke-width="3" points="703.4,-931.04 713.49,-927.81 703.59,-924.05 703.4,-931.04"/>
<text text-anchor="middle" x="719.71" y="-899.01" font-family="Helvetica,sans-Serif" font-size="32.00" fill="#29235c">*</text>
<text text-anchor="middle" x="488.1" y="-331.01" font-family="Helvetica,sans-Serif" font-size="32.00" fill="#29235c">1</text>
</g>
</g>
</svg>
